<svg xmlns="http://www.w3.org/2000/svg" viewBox="0 0 800 1000" width="800" height="1000"><defs>
<linearGradient id="wall" x1="0" y1="0" x2="0" y2="1"><stop offset="0" stop-color="#FFFFFF"/><stop offset="1" stop-color="#F6F4F1"/></linearGradient>
<radialGradient id="glow" cx=".62" cy=".32" r=".6"><stop offset="0" stop-color="#ffffff" stop-opacity="0"/><stop offset="1" stop-color="#ffffff" stop-opacity="0"/></radialGradient>
<radialGradient id="shadow" cx=".5" cy=".5" r=".5"><stop offset="0" stop-color="#22201E" stop-opacity=".35"/><stop offset="1" stop-color="#22201E" stop-opacity="0"/></radialGradient>
<linearGradient id="gold" x1="0" y1="0" x2="1" y2="1"><stop offset="0" stop-color="#E6CF9C"/><stop offset=".45" stop-color="#C7A15B"/><stop offset="1" stop-color="#8C6A2E"/></linearGradient>
<linearGradient id="silver" x1="0" y1="0" x2="1" y2="1"><stop offset="0" stop-color="#F2F2EE"/><stop offset=".5" stop-color="#C9CCCF"/><stop offset="1" stop-color="#8E9296"/></linearGradient>
<linearGradient id="bronze" x1="0" y1="0" x2="1" y2="1"><stop offset="0" stop-color="#E2B48A"/><stop offset=".5" stop-color="#A86B3C"/><stop offset="1" stop-color="#6E4222"/></linearGradient>
<linearGradient id="wood" x1="0" y1="0" x2="1" y2="0"><stop offset="0" stop-color="#5A3622"/><stop offset=".5" stop-color="#7A4E2D"/><stop offset="1" stop-color="#4E2E1C"/></linearGradient>
<linearGradient id="lightwood" x1="0" y1="0" x2="1" y2="1"><stop offset="0" stop-color="#D9B98C"/><stop offset="1" stop-color="#A97E50"/></linearGradient>
<linearGradient id="burg" x1="0" y1="0" x2="1" y2="1"><stop offset="0" stop-color="#8A2E3C"/><stop offset="1" stop-color="#4C121C"/></linearGradient>
<linearGradient id="glass" x1="0" y1="0" x2="1" y2="1"><stop offset="0" stop-color="#FFFFFF" stop-opacity=".85"/><stop offset=".5" stop-color="#E9EEF0" stop-opacity=".55"/><stop offset="1" stop-color="#FFFFFF" stop-opacity=".75"/></linearGradient>
</defs><rect width="800" height="1000" fill="url(#wall)"/><rect width="800" height="1000" fill="url(#glow)"/><rect x="0" y="720" width="800" height="280" fill="#EFECE8"/><ellipse cx="400" cy="790" rx="280" ry="24" fill="url(#shadow)"/>
<g transform="rotate(-6 400 640)"><rect x="150" y="560" width="500" height="200" rx="10" fill="url(#wood)"/>
<rect x="172" y="580" width="456" height="160" rx="6" fill="#4C121C"/>
<rect x="210" y="640" width="380" height="26" rx="13" fill="#22201E"/><rect x="520" y="640" width="70" height="26" rx="10" fill="url(#gold)"/><rect x="230" y="646" width="120" height="6" rx="3" fill="#C7A15B" opacity=".8"/></g>
<g transform="rotate(-14 420 420)"><rect x="170" y="300" width="500" height="200" rx="12" fill="url(#wood)"/><rect x="330" y="370" width="180" height="60" rx="6" fill="url(#gold)"/><rect x="360.0" y="385" width="120" height="8" rx="4.0" fill="#6E5222" opacity="0.55"/><rect x="380.0" y="405" width="80" height="8" rx="4.0" fill="#6E5222" opacity="0.55"/></g></svg>