<svg xmlns="http://www.w3.org/2000/svg" viewBox="0 0 800 1000" width="800" height="1000"><defs>
<linearGradient id="wall" x1="0" y1="0" x2="0" y2="1"><stop offset="0" stop-color="#EFE5D6"/><stop offset="1" stop-color="#E2D4C0"/></linearGradient>
<radialGradient id="glow" cx=".62" cy=".32" r=".6"><stop offset="0" stop-color="#ffffff" stop-opacity="0.35"/><stop offset="1" stop-color="#ffffff" stop-opacity="0"/></radialGradient>
<radialGradient id="shadow" cx=".5" cy=".5" r=".5"><stop offset="0" stop-color="#22201E" stop-opacity=".35"/><stop offset="1" stop-color="#22201E" stop-opacity="0"/></radialGradient>
<linearGradient id="gold" x1="0" y1="0" x2="1" y2="1"><stop offset="0" stop-color="#E6CF9C"/><stop offset=".45" stop-color="#C7A15B"/><stop offset="1" stop-color="#8C6A2E"/></linearGradient>
<linearGradient id="silver" x1="0" y1="0" x2="1" y2="1"><stop offset="0" stop-color="#F2F2EE"/><stop offset=".5" stop-color="#C9CCCF"/><stop offset="1" stop-color="#8E9296"/></linearGradient>
<linearGradient id="bronze" x1="0" y1="0" x2="1" y2="1"><stop offset="0" stop-color="#E2B48A"/><stop offset=".5" stop-color="#A86B3C"/><stop offset="1" stop-color="#6E4222"/></linearGradient>
<linearGradient id="wood" x1="0" y1="0" x2="1" y2="0"><stop offset="0" stop-color="#5A3622"/><stop offset=".5" stop-color="#7A4E2D"/><stop offset="1" stop-color="#4E2E1C"/></linearGradient>
<linearGradient id="lightwood" x1="0" y1="0" x2="1" y2="1"><stop offset="0" stop-color="#D9B98C"/><stop offset="1" stop-color="#A97E50"/></linearGradient>
<linearGradient id="burg" x1="0" y1="0" x2="1" y2="1"><stop offset="0" stop-color="#8A2E3C"/><stop offset="1" stop-color="#4C121C"/></linearGradient>
<linearGradient id="glass" x1="0" y1="0" x2="1" y2="1"><stop offset="0" stop-color="#FFFFFF" stop-opacity=".85"/><stop offset=".5" stop-color="#E9EEF0" stop-opacity=".55"/><stop offset="1" stop-color="#FFFFFF" stop-opacity=".75"/></linearGradient>
</defs><rect width="800" height="1000" fill="url(#wall)"/><rect width="800" height="1000" fill="url(#glow)"/><rect x="0" y="760" width="800" height="240" fill="#D9C8B0"/><ellipse cx="400" cy="772" rx="250" ry="24" fill="url(#shadow)"/>
<g transform="rotate(4 400 500)"><rect x="210" y="240" width="380" height="520" rx="12" fill="url(#burg)"/><rect x="210" y="240" width="40" height="520" rx="8" fill="#4C121C"/>
<rect x="300" y="380" width="230" height="110" rx="8" fill="url(#gold)"/><rect x="340.0" y="410" width="150" height="10" rx="5.0" fill="#6E5222" opacity="0.6"/><rect x="365.0" y="438" width="100" height="10" rx="5.0" fill="#6E5222" opacity="0.6"/>
<rect x="590" y="300" width="10" height="440" fill="#F7F1E8"/></g>
<g transform="rotate(-8 230 700)"><rect x="110" y="600" width="230" height="150" rx="6" fill="#FCF8F2"/>
<rect x="130" y="620" width="88" height="34" rx="17" fill="#F3E6E3"/><rect x="232" y="620" width="88" height="34" rx="17" fill="#F3E6E3"/><rect x="130" y="668" width="88" height="34" rx="17" fill="#F3E9D4"/><rect x="232" y="668" width="88" height="34" rx="17" fill="#F3E9D4"/></g></svg>