<svg xmlns="http://www.w3.org/2000/svg" viewBox="0 0 800 1000" width="800" height="1000"><defs>
<linearGradient id="wall" x1="0" y1="0" x2="0" y2="1"><stop offset="0" stop-color="#F4ECDF"></stop><stop offset="1" stop-color="#E7DBC8"></stop></linearGradient>
<radialGradient id="glow" cx=".62" cy=".32" r=".6"><stop offset="0" stop-color="#ffffff" stop-opacity="0.35"></stop><stop offset="1" stop-color="#ffffff" stop-opacity="0"></stop></radialGradient>
<radialGradient id="shadow" cx=".5" cy=".5" r=".5"><stop offset="0" stop-color="#22201E" stop-opacity=".35"></stop><stop offset="1" stop-color="#22201E" stop-opacity="0"></stop></radialGradient>
<linearGradient id="gold" x1="0" y1="0" x2="1" y2="1"><stop offset="0" stop-color="#E6CF9C"></stop><stop offset=".45" stop-color="#C7A15B"></stop><stop offset="1" stop-color="#8C6A2E"></stop></linearGradient>
<linearGradient id="wood" x1="0" y1="0" x2="1" y2="0"><stop offset="0" stop-color="#5A3622"></stop><stop offset=".5" stop-color="#7A4E2D"></stop><stop offset="1" stop-color="#4E2E1C"></stop></linearGradient>
<linearGradient id="burg" x1="0" y1="0" x2="1" y2="1"><stop offset="0" stop-color="#8A2E3C"></stop><stop offset="1" stop-color="#4C121C"></stop></linearGradient>
</defs>
<rect width="800" height="1000" fill="url(#wall)"></rect>
<rect width="800" height="1000" fill="url(#glow)"></rect>
<path d="M0 640 C200 600 300 700 520 660 C650 636 740 680 800 660 V1000 H0Z" fill="#EADFCD"></path>
<ellipse cx="420" cy="740" rx="190" ry="30" fill="url(#shadow)"></ellipse>
<path d="M300 120 L400 470 L500 120 Z" fill="#6B1F2B"></path>
<path d="M330 120 L400 380 L470 120 Z" fill="#8A2E3C"></path>
<path d="M360 120 L400 300 L440 120 Z" fill="#C7A15B" opacity=".9"></path>
<rect x="370" y="440" width="60" height="60" rx="10" fill="url(#gold)"></rect>
<circle cx="400" cy="600" r="150" fill="url(#gold)"></circle>
<circle cx="400" cy="600" r="118" fill="none" stroke="#8C6A2E" stroke-width="6" opacity=".7"></circle>
<path d="M400 520 L422 572 L478 576 L436 612 L450 666 L400 636 L350 666 L364 612 L322 576 L378 572 Z" fill="#8C6A2E" opacity=".75"></path></svg>